<?xml version="1.0" encoding="UTF-8" standalone="no"?>
<svg
   version="1.1"
   width="100"
   height="100"
   id="svg4460"
   xmlns="http://www.w3.org/2000/svg"
   xmlns:svg="http://www.w3.org/2000/svg">
  <defs
     id="defs7" />
  <rect
     style="opacity:0.286982;fill:#336699;fill-opacity:1;stroke:none;stroke-width:59.8539;stroke-linecap:round;stroke-linejoin:round"
     id="rect846"
     width="100"
     height="100"
     x="0"
     y="0" />
  <path
     style="fill:#336699;stroke-width:0.8"
     d="m 65.7376,62.664 c 6.912,0 12.1968,2.288 15.856,6.8648 3.3536,4.1952 5.2576,8.604 5.712,13.2264 l 0.088,1.2656 V 100 H 12.6064 V 84.0208 c 0.2072,-5.084 2.1408,-9.9152 5.8,-14.492 3.6584,-4.5768 8.944,-6.8648 15.8544,-6.8648 z M 49.9376,20 c 9.024,0 16.3328,8.6128 16.3328,19.248 0,10.6344 -7.308,19.2464 -16.332,19.2464 -9.024,0 -16.3336,-8.612 -16.3336,-19.2464 C 33.6056,28.6128 40.9136,20 49.9376,20 Z"
     id="path2" />
  <circle
     style="opacity:1;fill:none;fill-opacity:1;stroke:#336699;stroke-width:5;stroke-linecap:round;stroke-linejoin:round;stroke-miterlimit:4;stroke-dasharray:none;stroke-opacity:1"
     id="path1923"
     cx="50"
     cy="50"
     r="47.5" />
</svg>
